<svg xmlns="http://www.w3.org/2000/svg" viewBox="0 0 64 64" role="img" aria-label="Chatbot bubble">
  <defs>
    <linearGradient id="bubble" x1="0%" y1="0%" x2="100%" y2="100%">
      <stop offset="0%" stop-color="#4ac0ff"/>
      <stop offset="100%" stop-color="#7b61ff"/>
    </linearGradient>
  </defs>
  <path fill="url(#bubble)" d="M8 12c0-3.3 2.7-6 6-6h36c3.3 0 6 2.7 6 6v22c0 3.3-2.7 6-6 6H28l-10 8c-1.2.9-3 .1-3-1.4V40H14c-3.3 0-6-2.7-6-6z"/>
  <circle cx="24" cy="25" r="4" fill="#fff"/>
  <circle cx="36" cy="25" r="4" fill="#fff"/>
  <path fill="#1f2552" d="M22 37c2.5 2.2 5.4 3.2 10 3.2s7.5-1 10-3.2c.6-.5 1.6-.5 2.2.1a1.5 1.5 0 0 1-.1 2.3C40.8 42.7 37 44 32 44s-8.8-1.3-12.1-4.6a1.5 1.5 0 0 1-.1-2.3c.6-.6 1.6-.6 2.2-.1z"/>
  <circle cx="24" cy="25" r="2" fill="#1f2552"/>
  <circle cx="36" cy="25" r="2" fill="#1f2552"/>
</svg>
